<svg xmlns="http://www.w3.org/2000/svg" width="50" height="51" viewBox="0 0 50 51" fill="none"><path d="M37.5 36.1631C37.0856 36.1631 36.6882 35.9985 36.3951 35.7054C36.1021 35.4124 35.9375 35.015 35.9375 34.6006V15.8506C35.935 13.7793 35.1111 11.7936 33.6465 10.3291C32.1819 8.86446 30.1962 8.04057 28.125 8.03809H21.875C19.8038 8.04057 17.8181 8.86446 16.3535 10.3291C14.8889 11.7936 14.065 13.7793 14.0625 15.8506V34.6006C14.0625 35.015 13.8979 35.4124 13.6049 35.7054C13.3118 35.9985 12.9144 36.1631 12.5 36.1631C12.0856 36.1631 11.6882 35.9985 11.3951 35.7054C11.1021 35.4124 10.9375 35.015 10.9375 34.6006V15.8506C10.9408 12.9508 12.0942 10.1707 14.1447 8.12026C16.1951 6.0698 18.9752 4.91639 21.875 4.91309H28.125C31.0248 4.91639 33.8049 6.0698 35.8553 8.12026C37.9058 10.1707 39.0592 12.9508 39.0625 15.8506V34.6006C39.0625 35.015 38.8979 35.4124 38.6049 35.7054C38.3118 35.9985 37.9144 36.1631 37.5 36.1631Z" fill="white"></path><path d="M12.5 36.1631H9.375C8.1318 36.1631 6.93951 35.6692 6.06044 34.7901C5.18136 33.9111 4.6875 32.7188 4.6875 31.4756V25.2256C4.6875 23.9824 5.18136 22.7901 6.06044 21.911C6.93951 21.0319 8.1318 20.5381 9.375 20.5381H12.5C12.9144 20.5381 13.3118 20.7027 13.6049 20.9957C13.8979 21.2888 14.0625 21.6862 14.0625 22.1006V34.6006C14.0625 35.015 13.8979 35.4124 13.6049 35.7054C13.3118 35.9985 12.9144 36.1631 12.5 36.1631ZM9.375 23.6631C8.9606 23.6631 8.56317 23.8277 8.27015 24.1207C7.97712 24.4138 7.8125 24.8112 7.8125 25.2256V31.4756C7.8125 31.89 7.97712 32.2874 8.27015 32.5804C8.56317 32.8735 8.9606 33.0381 9.375 33.0381H10.9375V23.6631H9.375Z" fill="white"></path><path d="M40.625 36.1631H37.5C37.0856 36.1631 36.6882 35.9985 36.3951 35.7054C36.1021 35.4124 35.9375 35.015 35.9375 34.6006V22.1006C35.9375 21.6862 36.1021 21.2888 36.3951 20.9957C36.6882 20.7027 37.0856 20.5381 37.5 20.5381H40.625C41.8682 20.5381 43.0605 21.0319 43.9396 21.911C44.8186 22.7901 45.3125 23.9824 45.3125 25.2256V31.4756C45.3125 32.7188 44.8186 33.9111 43.9396 34.7901C43.0605 35.6692 41.8682 36.1631 40.625 36.1631ZM39.0625 33.0381H40.625C41.0394 33.0381 41.4368 32.8735 41.7299 32.5804C42.0229 32.2874 42.1875 31.89 42.1875 31.4756V25.2256C42.1875 24.8112 42.0229 24.4138 41.7299 24.1207C41.4368 23.8277 41.0394 23.6631 40.625 23.6631H39.0625V33.0381Z" fill="white"></path><path d="M26.5625 45.5381C25.6354 45.5381 24.7291 45.2632 23.9583 44.7481C23.1874 44.233 22.5866 43.5009 22.2318 42.6444C21.877 41.7879 21.7842 40.8454 21.9651 39.9361C22.1459 39.0268 22.5924 38.1916 23.2479 37.536C23.9035 36.8805 24.7387 36.434 25.648 36.2532C26.5573 36.0723 27.4998 36.1651 28.3563 36.5199C29.2129 36.8747 29.9449 37.4755 30.46 38.2464C30.9751 39.0172 31.25 39.9235 31.25 40.8506C31.25 42.0938 30.7561 43.2861 29.8771 44.1652C28.998 45.0442 27.8057 45.5381 26.5625 45.5381ZM26.5625 39.2881C26.2535 39.2881 25.9514 39.3797 25.6944 39.5514C25.4375 39.7231 25.2372 39.9671 25.1189 40.2526C25.0007 40.5382 24.9697 40.8523 25.03 41.1554C25.0903 41.4585 25.2391 41.7369 25.4576 41.9554C25.6762 42.174 25.9546 42.3228 26.2577 42.3831C26.5608 42.4434 26.8749 42.4124 27.1604 42.2942C27.446 42.1759 27.69 41.9756 27.8617 41.7187C28.0334 41.4617 28.125 41.1596 28.125 40.8506C28.125 40.4362 27.9604 40.0388 27.6674 39.7457C27.3743 39.4527 26.9769 39.2881 26.5625 39.2881Z" fill="white"></path><path d="M32.8125 42.4131H29.6875C29.2731 42.4131 28.8757 42.2485 28.5826 41.9554C28.2896 41.6624 28.125 41.265 28.125 40.8506C28.125 40.4362 28.2896 40.0388 28.5826 39.7457C28.8757 39.4527 29.2731 39.2881 29.6875 39.2881H32.8125C33.6413 39.2881 34.4362 38.9588 35.0222 38.3728C35.6083 37.7867 35.9375 36.9919 35.9375 36.1631V28.3506C35.9375 27.9362 36.1021 27.5388 36.3951 27.2457C36.6882 26.9527 37.0856 26.7881 37.5 26.7881C37.9144 26.7881 38.3118 26.9527 38.6049 27.2457C38.8979 27.5388 39.0625 27.9362 39.0625 28.3506V36.1631C39.0625 37.8207 38.404 39.4104 37.2319 40.5825C36.0598 41.7546 34.4701 42.4131 32.8125 42.4131Z" fill="white"></path></svg>